<?xml version="1.0" encoding="iso-8859-1"?>
<!-- Generator: Adobe Illustrator 19.0.0, SVG Export Plug-In . SVG Version: 6.00 Build 0)  -->
<svg version="1.1" id="Layer_1" xmlns="http://www.w3.org/2000/svg" xmlns:xlink="http://www.w3.org/1999/xlink" x="0px" y="0px"
	 viewBox="0 0 511.999 511.999" style="enable-background:new 0 0 511.999 511.999;" xml:space="preserve">
<path style="fill:#808080;" d="M304.036,223.976h184.063c8.882,0,16.083,7.2,16.083,16.083v54.006
	c0,32.035-25.97,58.005-58.005,58.005l0,0c-14.206,0-27.919-5.213-38.536-14.651l-39.086-34.744
	c-10.618-9.438-24.33-14.651-38.536-14.651h-25.982"/>
<path style="fill:#CCCCCC;" d="M448.253,353.112c30.786,3.184,56.153-25.09,56.153-56.041v-48.113H311.518v40.107
	c0,0,50.445-3.755,64.364,16.012C375.882,305.078,400.945,348.218,448.253,353.112z"/>
<path style="fill:#808080;" d="M223.977,207.965V23.902c0-8.882,7.2-16.083,16.083-16.083h54.006
	c32.035,0,58.005,25.97,58.005,58.005l0,0c0,14.206-5.213,27.919-14.651,38.536l-34.744,39.086
	c-9.438,10.618-14.651,24.33-14.651,38.536v25.982"/>
<path style="fill:#CCCCCC;" d="M352.07,64.005c3.184-30.786-25.09-55.896-56.041-55.896h-48.113v191.845h40.107
	c0,0-3.755-50.052,16.012-63.972C304.036,135.983,347.176,111.313,352.07,64.005z"/>
<path style="fill:#808080;" d="M207.965,288.024H23.903c-8.882,0-16.083-7.2-16.083-16.083v-54.006
	c0-32.035,25.97-58.005,58.005-58.005l0,0c14.206,0,27.919,5.213,38.536,14.651l39.086,34.744
	c10.618,9.438,24.33,14.651,38.536,14.651h25.982"/>
<path style="fill:#CCCCCC;" d="M64.006,159.93C33.22,156.746,8.11,185.02,8.11,215.971v48.628h191.845v-40.621
	c0,0-50.052,3.755-63.972-16.012C135.983,207.965,111.314,164.823,64.006,159.93z"/>
<path style="fill:#808080;" d="M288.024,304.035v184.063c0,8.882-7.2,16.083-16.083,16.083h-54.006
	c-32.035,0-58.005-25.97-58.005-58.005l0,0c0-14.206,5.213-27.919,14.651-38.536l34.744-39.086
	c9.438-10.618,14.651-24.33,14.651-38.536v-25.982"/>
<path style="fill:#CCCCCC;" d="M158.888,448.252c-3.184,30.786,25.09,56.153,56.041,56.153h48.628V311.517h-40.622
	c0,0,3.755,50.445-16.012,64.364C206.923,375.882,163.781,400.944,158.888,448.252z"/>
<circle style="fill:#808080;" cx="255.999" cy="255.999" r="32.024"/>
<path style="fill:#00FFFF;" d="M256.001,199.959c-30.951,0-56.041,25.09-56.041,56.041s25.09,56.041,56.041,56.041
	c30.95,0,56.041-25.09,56.041-56.041S286.95,199.959,256.001,199.959z M256.001,288.024c-17.686,0-32.024-14.337-32.024-32.024
	s14.337-32.024,32.024-32.024s32.024,14.337,32.024,32.024C288.024,273.685,273.687,288.024,256.001,288.024z"/>
<path d="M256.001,295.843c-21.969,0-39.842-17.874-39.842-39.843s17.874-39.842,39.842-39.842c21.969,0,39.843,17.874,39.843,39.842
	C295.844,277.969,277.97,295.843,256.001,295.843z M256.001,231.796c-13.346,0-24.203,10.857-24.203,24.203
	c0,13.346,10.857,24.204,24.203,24.204s24.204-10.858,24.204-24.204C280.204,242.654,269.346,231.796,256.001,231.796z"/>
<g>
	<rect x="247.919" y="248.961" style="fill:#FFFFFF;" width="16.682" height="15.64"/>
	<rect x="352.183" y="240.62" style="fill:#FFFFFF;" width="95.923" height="15.64"/>
	<rect x="464.788" y="240.62" style="fill:#FFFFFF;" width="15.64" height="15.64"/>
	<rect x="240.621" y="63.369" style="fill:#FFFFFF;" width="15.64" height="96.965"/>
	<rect x="240.621" y="32.09" style="fill:#FFFFFF;" width="15.64" height="15.64"/>
	<rect x="63.37" y="256.26" style="fill:#FFFFFF;" width="96.965" height="15.64"/>
	<rect x="32.091" y="256.26" style="fill:#FFFFFF;" width="15.64" height="15.64"/>
</g>
<path d="M488.098,216.157H305.853c-2.958-3.694-6.316-7.051-10.01-10.01v-24.163c0-12.304,4.502-24.145,12.676-33.341l34.744-39.086
	c10.722-12.062,16.627-27.592,16.627-43.731C359.89,29.529,330.361,0,294.065,0H240.06c-13.18,0-23.902,10.722-23.902,23.902
	v182.245c-3.694,2.958-7.051,6.316-10.01,10.01h-24.163c-12.304,0-24.144-4.502-33.341-12.676l-39.086-34.744
	c-12.062-10.722-27.592-16.627-43.731-16.627c-36.295,0-65.824,29.529-65.824,65.824v54.006c0,13.18,10.722,23.902,23.902,23.902
	h182.245c2.958,3.694,6.315,7.051,10.01,10.01v24.163c0,12.304-4.502,24.144-12.676,33.34l-34.744,39.086
	c-10.722,12.062-16.627,27.592-16.627,43.731c0,36.295,29.529,65.825,65.824,65.825h54.006c13.18,0,23.902-10.723,23.902-23.902
	V305.853c3.694-2.958,7.051-6.315,10.009-10.009h24.163c12.304,0,24.145,4.502,33.34,12.676l39.086,34.744
	c12.062,10.722,27.592,16.627,43.731,16.627c36.295,0,65.825-29.529,65.825-65.824v-54.006
	C512.001,226.88,501.278,216.157,488.098,216.157z M231.797,23.902c0-4.556,3.707-8.263,8.263-8.263h54.006
	c27.672,0,50.184,22.513,50.184,50.185c0,12.304-4.502,24.144-12.676,33.34l-34.744,39.086
	c-10.721,12.062-16.627,27.592-16.627,43.731v14.934c-5.238-2.154-10.824-3.625-16.648-4.315v-8.287h-15.64v8.354
	c-5.633,0.715-11.039,2.159-16.119,4.248V23.902H231.797z M23.903,280.204c-4.556,0-8.263-3.707-8.263-8.263v-54.006
	c0-27.672,22.513-50.184,50.185-50.184c12.304,0,24.144,4.502,33.34,12.676l39.087,34.744
	c12.062,10.722,27.592,16.627,43.731,16.627h14.934c-2.218,5.394-3.718,11.152-4.381,17.162h-8.221v15.64h8.419
	c0.737,5.448,2.157,10.68,4.182,15.605H23.903V280.204z M280.204,488.098c0,4.556-3.707,8.263-8.263,8.263h-54.006
	c-27.672,0-50.184-22.513-50.184-50.185c0-12.304,4.502-24.144,12.676-33.34l34.744-39.087
	c10.722-12.062,16.627-27.593,16.627-43.731v-14.934c5.08,2.088,10.487,3.532,16.119,4.248v7.826h15.64v-7.758
	c5.823-0.69,11.409-2.161,16.648-4.315v173.015H280.204z M256.001,304.221c-26.588,0-48.221-21.632-48.221-48.221
	c0-26.588,21.632-48.221,48.221-48.221c26.589,0,48.221,21.632,48.221,48.221S282.59,304.221,256.001,304.221z M496.361,294.065
	c0,27.672-22.513,50.184-50.185,50.184c-12.304,0-24.144-4.502-33.34-12.676l-39.086-34.744
	c-12.062-10.721-27.592-16.627-43.731-16.627h-14.934c2.025-4.925,3.445-10.157,4.182-15.605h7.892v-15.64h-7.694
	c-0.662-6.01-2.163-11.769-4.381-17.162h173.015c4.556,0,8.263,3.707,8.263,8.263V294.065z"/>
<g>
	<rect x="256.26" y="352.182" style="fill:#FFFFFF;" width="15.64" height="95.923"/>
	<rect x="256.26" y="464.787" style="fill:#FFFFFF;" width="15.64" height="15.64"/>
</g>
<g>
</g>
<g>
</g>
<g>
</g>
<g>
</g>
<g>
</g>
<g>
</g>
<g>
</g>
<g>
</g>
<g>
</g>
<g>
</g>
<g>
</g>
<g>
</g>
<g>
</g>
<g>
</g>
<g>
</g>
</svg>
